<svg width="251" height="251" viewBox="0 0 251 251" fill="none" xmlns="http://www.w3.org/2000/svg">
<path d="M251 125.5C251 194.812 194.812 251 125.5 251C56.1883 251 0 194.812 0 125.5C0 56.1883 56.1883 0 125.5 0C194.812 0 251 56.1883 251 125.5ZM18.825 125.5C18.825 184.415 66.585 232.175 125.5 232.175C184.415 232.175 232.175 184.415 232.175 125.5C232.175 66.585 184.415 18.825 125.5 18.825C66.585 18.825 18.825 66.585 18.825 125.5Z" fill="#F6DE00"/>
<path d="M251 125.5C251 148.645 244.6 171.339 232.506 191.074C220.413 210.808 203.098 226.814 182.476 237.321C161.853 247.829 138.727 252.429 115.653 250.613C92.5797 248.797 70.4577 240.636 51.733 227.032C33.0083 213.427 18.4103 194.91 9.55312 173.527C0.695911 152.144 -2.07556 128.728 1.54511 105.867C5.16579 83.0074 15.0376 61.5939 30.069 43.9943C45.1005 26.3947 64.7061 13.2946 86.7184 6.14241L92.5356 24.046C73.8252 30.1254 57.1604 41.2605 44.3837 56.2201C31.6069 71.1798 23.2159 89.3813 20.1383 108.812C17.0608 128.243 19.4165 148.147 26.9452 166.323C34.4738 184.498 46.882 200.238 62.798 211.802C78.714 223.366 97.5178 230.303 117.13 231.846C136.743 233.39 156.4 229.48 173.929 220.548C191.458 211.617 206.176 198.012 216.455 181.238C226.735 164.463 232.175 145.173 232.175 125.5H251Z" fill="#7000A5"/>
<path d="M251 125.5C251 155.382 240.338 184.283 220.931 207.006C201.524 229.728 174.647 244.78 145.133 249.455C115.618 254.129 85.405 248.12 59.9264 232.506C34.4479 216.893 15.3764 192.701 6.14241 164.282L24.046 158.464C31.895 182.621 48.1057 203.184 69.7625 216.455C91.4192 229.727 117.101 234.835 142.188 230.862C167.275 226.888 190.121 214.094 206.616 194.78C223.112 175.466 232.175 150.9 232.175 125.5H251Z" fill="#0E790C"/>
<path d="M251 125.5C251 148.645 244.6 171.339 232.506 191.074C220.413 210.808 203.098 226.814 182.476 237.321C161.853 247.829 138.727 252.429 115.653 250.613C92.5797 248.797 70.4577 240.636 51.733 227.032L62.798 211.802C78.714 223.366 97.5178 230.303 117.13 231.846C136.743 233.39 156.4 229.48 173.929 220.548C191.458 211.617 206.176 198.012 216.455 181.238C226.735 164.463 232.175 145.173 232.175 125.5H251Z" fill="#CC2323"/>
<path d="M251 125.5C251 138.669 248.927 151.757 244.858 164.282L226.954 158.464C230.413 147.818 232.175 136.694 232.175 125.5H251Z" fill="#0034EB"/>
</svg>
