<svg width="36" height="36" viewBox="0 0 36 36" fill="none" xmlns="http://www.w3.org/2000/svg">
<path fill-rule="evenodd" clip-rule="evenodd" d="M18 1.90735e-06C18.1856 0.000101056 18.3676 0.051885 18.5255 0.149554C18.6834 0.247223 18.811 0.386921 18.894 0.553002L35.894 34.553C35.9702 34.7054 36.0061 34.8748 35.9984 35.045C35.9908 35.2152 35.9397 35.3806 35.8502 35.5256C35.7606 35.6706 35.6355 35.7902 35.4867 35.8733C35.3379 35.9563 35.1704 35.9999 35 36H0.999985C0.829594 35.9999 0.662052 35.9563 0.513257 35.8733C0.364462 35.7902 0.239349 35.6706 0.149791 35.5256C0.0602323 35.3806 0.0091982 35.2152 0.00153167 35.045C-0.00613486 34.8748 0.0298203 34.7054 0.105985 34.553L17.106 0.553002C17.189 0.386921 17.3166 0.247223 17.4745 0.149554C17.6324 0.051885 17.8143 0.000101056 18 1.90735e-06ZM2.61799 34H33.382L18 3.236L2.61799 34Z" fill="white"/>
<path d="M16 14C16 13.4696 16.2107 12.9609 16.5858 12.5858C16.9609 12.2107 17.4696 12 18 12C18.5304 12 19.0391 12.2107 19.4142 12.5858C19.7893 12.9609 20 13.4696 20 14V24C20 24.5304 19.7893 25.0391 19.4142 25.4142C19.0391 25.7893 18.5304 26 18 26C17.4696 26 16.9609 25.7893 16.5858 25.4142C16.2107 25.0391 16 24.5304 16 24V14ZM16 29.966C16 28.88 16.88 28 17.966 28H18.034C18.5555 28 19.0557 28.2072 19.4245 28.576C19.7933 28.9448 20.0005 29.445 20.0005 29.9665C20.0005 30.488 19.7933 30.9882 19.4245 31.357C19.0557 31.7258 18.5555 31.933 18.034 31.933H17.967C17.7087 31.9331 17.4528 31.8823 17.2141 31.7835C16.9754 31.6847 16.7585 31.5399 16.5758 31.3572C16.3931 31.1745 16.2483 30.9576 16.1495 30.7189C16.0507 30.4802 15.9999 30.2243 16 29.966Z" fill="white"/>
</svg>
