<svg width="48" height="48" viewBox="0 0 48 48" fill="none" xmlns="http://www.w3.org/2000/svg">
<path d="M24 4C35.046 4 44 12.954 44 24C44 35.046 35.046 44 24 44C12.954 44 4 35.046 4 24C4 12.954 12.954 4 24 4ZM24 6.5C14.335 6.5 6.5 14.335 6.5 24C6.5 33.665 14.335 41.5 24 41.5C33.665 41.5 41.5 33.665 41.5 24C41.5 14.335 33.665 6.5 24 6.5ZM17.782 16.025L17.884 16.116L24 22.233L30.116 16.116C30.3337 15.8983 30.6242 15.7686 30.9316 15.7519C31.239 15.7351 31.5418 15.8323 31.782 16.025L31.884 16.116C32.1017 16.3337 32.2313 16.6242 32.2481 16.9316C32.2649 17.239 32.1677 17.5418 31.975 17.782L31.884 17.884L25.767 24L31.884 30.116C32.1017 30.3337 32.2313 30.6242 32.2481 30.9316C32.2649 31.239 32.1677 31.5418 31.975 31.782L31.884 31.884C31.6663 32.1017 31.3758 32.2313 31.0684 32.2481C30.761 32.2649 30.4582 32.1677 30.218 31.975L30.116 31.884L24 25.767L17.884 31.884C17.6663 32.1017 17.3758 32.2313 17.0684 32.2481C16.761 32.2649 16.4582 32.1677 16.218 31.975L16.116 31.884C15.8983 31.6663 15.7686 31.3758 15.7519 31.0684C15.7351 30.761 15.8323 30.4582 16.025 30.218L16.116 30.116L22.233 24L16.116 17.884C15.8983 17.6663 15.7686 17.3758 15.7519 17.0684C15.7351 16.761 15.8323 16.4582 16.025 16.218L16.116 16.116C16.3337 15.8983 16.6242 15.7686 16.9316 15.7519C17.239 15.7351 17.5418 15.8323 17.782 16.025V16.025Z" fill="white"/>
</svg>
