<svg width="14" height="14" viewBox="0 0 14 14" fill="none" xmlns="http://www.w3.org/2000/svg">
<path d="M8.1 3.4L7.6 1H6.4L5.9 3.4L5.2 3.7L3.2 2.4L2.3 3.2L3.6 5.2L3.4 5.9L1 6.4V7.6L3.4 8.1L3.7 8.9L2.4 10.9L3.2 11.7L5.2 10.4L6 10.7L6.4 13H7.6L8.1 10.6L8.9 10.3L10.9 11.6L11.7 10.8L10.4 8.8L10.7 8L13 7.6V6.4L10.6 5.9L10.3 5.1L11.6 3.1L10.8 2.3L8.8 3.6L8.1 3.4ZM8.4 0L8.9 2.4L11 1.1L13 3.1L11.6 5.2L14 5.6V8.4L11.6 8.9L13 11L11 13L8.9 11.6L8.4 14H5.6L5.1 11.6L3 12.9L1 10.9L2.4 8.8L0 8.4V5.6L2.4 5.1L1.1 3L3.1 1L5.2 2.4L5.6 0H8.4V0ZM9 7C9 8.1 8.1 9 7 9C5.9 9 5 8.1 5 7C5 5.9 5.9 5 7 5C8.1 5 9 5.9 9 7ZM7 8C7.6 8 8 7.6 8 7C8 6.4 7.6 6 7 6C6.4 6 6 6.4 6 7C6 7.6 6.4 8 7 8Z" fill="white"/>
</svg>
