<?xml version="1.0" encoding="UTF-8" standalone="no" ?>
<!DOCTYPE svg PUBLIC "-//W3C//DTD SVG 1.1//EN" "http://www.w3.org/Graphics/SVG/1.1/DTD/svg11.dtd">
<svg xmlns="http://www.w3.org/2000/svg" xmlns:xlink="http://www.w3.org/1999/xlink" version="1.1" width="141" height="141" viewBox="0 0 47 47" xml:space="preserve">
<desc>Created with Fabric.js 3.6.3</desc>
<defs>
</defs>
<g transform="matrix(1 0 0 1 22 24)"  >
<g style=""   >
		<g transform="matrix(1 0 0 1 -1.17 4.38)" id="path2943"  >
<path style="stroke: none; stroke-width: 1; stroke-dasharray: none; stroke-linecap: round; stroke-dashoffset: 0; stroke-linejoin: round; stroke-miterlimit: 4; fill: rgb(0,0,0); fill-rule: evenodd; opacity: 1;"  transform=" translate(-22.83, -28.38)" d="m 7.1132812 12.166016 a 0.50005 0.50005 0 0 0 -0.5 0.5 v 31.43164 a 0.50005 0.50005 0 0 0 0.5 0.5 H 38.544922 a 0.50005 0.50005 0 0 0 0.5 -0.5 v -8.242187 a 0.50005 0.50005 0 0 0 -0.5 -0.5 H 20.148437 V 12.666016 a 0.50005 0.50005 0 0 0 -0.5 -0.5 z m 0.5 1 H 19.148437 v 22.689453 a 0.50005 0.50005 0 0 0 0.5 0.5 h 18.396485 v 7.242187 H 7.6132812 Z" stroke-linecap="round" />
</g>
		<g transform="matrix(1 0 0 1 8.68 -4.98)" id="rect31"  >
<path style="stroke: none; stroke-width: 1; stroke-dasharray: none; stroke-linecap: round; stroke-dashoffset: 0; stroke-linejoin: round; stroke-miterlimit: 4; fill: rgb(0,0,0); fill-rule: evenodd; opacity: 1;"  transform=" translate(-32.68, -19.02)" d="m 19.648437 1.6796875 a 0.50005 0.50005 0 0 0 -0.5 0.5 V 12.666016 V 35.855469 a 0.50005 0.50005 0 0 0 0.5 0.5 h 18.896485 h 7.175781 a 0.50005 0.50005 0 0 0 0.5 -0.5 V 10.113281 A 0.50005 0.50005 0 0 0 46.074219 9.7597656 L 38.138672 1.8261719 A 0.50005 0.50005 0 0 0 37.785156 1.6796875 Z m 0.5 1 h 17.429688 l 7.642578 7.6425785 V 35.355469 H 38.544922 H 20.148437 V 12.666016 Z" stroke-linecap="round" />
</g>
		<g transform="matrix(1 0 0 1 17.5 -17.6)" id="path4943"  >
<path style="stroke: none; stroke-width: 1; stroke-dasharray: none; stroke-linecap: butt; stroke-dashoffset: 0; stroke-linejoin: round; stroke-miterlimit: 4; fill: rgb(0,0,0); fill-rule: nonzero; opacity: 1;"  transform=" translate(-41.5, -6.4)" d="m 38.285156 2.1777344 l -1 0.00391 l 0.02539 7.9238284 a 0.50005 0.50005 0 0 0 0.498047 0.498047 l 7.910156 0.0098 l 0.002 -0.9999997 l -7.412109 -0.00977 z" stroke-linecap="round" />
</g>
</g>
</g>
</svg>