<svg width="26" height="26" viewBox="0 0 26 26" fill="none" xmlns="http://www.w3.org/2000/svg">
<path fill-rule="evenodd" clip-rule="evenodd" d="M7.70917 0.243672C9.07767 0.180672 9.514 0.166672 13 0.166672C16.486 0.166672 16.9223 0.181838 18.2897 0.243672C19.657 0.305505 20.5903 0.523672 21.407 0.839838C22.2622 1.16301 23.038 1.66817 23.6797 2.3215C24.333 2.962 24.837 3.73667 25.159 4.59301C25.4763 5.40967 25.6933 6.34301 25.7563 7.70801C25.8193 9.07884 25.8333 9.51517 25.8333 13C25.8333 16.486 25.8182 16.9223 25.7563 18.2908C25.6945 19.6558 25.4763 20.5892 25.159 21.4058C24.837 22.2623 24.3322 23.0382 23.6797 23.6797C23.038 24.333 22.2622 24.837 21.407 25.159C20.5903 25.4763 19.657 25.6933 18.292 25.7563C16.9223 25.8193 16.486 25.8333 13 25.8333C9.514 25.8333 9.07767 25.8182 7.70917 25.7563C6.34417 25.6945 5.41084 25.4763 4.59417 25.159C3.73775 24.837 2.9618 24.3321 2.32034 23.6797C1.66745 23.0388 1.16221 22.2632 0.839838 21.407C0.523672 20.5903 0.306672 19.657 0.243672 18.292C0.180672 16.9212 0.166672 16.4848 0.166672 13C0.166672 9.514 0.181838 9.07767 0.243672 7.71034C0.305505 6.343 0.523672 5.40967 0.839838 4.59301C1.16268 3.73677 1.66831 2.9612 2.3215 2.32034C2.96205 1.66759 3.73722 1.16236 4.59301 0.839838C5.40967 0.523672 6.34301 0.306672 7.70801 0.243672H7.70917ZM18.1858 2.55367C16.8325 2.49184 16.4265 2.47901 13 2.47901C9.5735 2.47901 9.1675 2.49184 7.81417 2.55367C6.56234 2.61084 5.88334 2.81967 5.43067 2.99584C4.83217 3.22917 4.40401 3.50567 3.95484 3.95484C3.52906 4.36907 3.20138 4.87333 2.99584 5.43067C2.81967 5.88334 2.61084 6.56234 2.55367 7.81417C2.49184 9.1675 2.47901 9.5735 2.47901 13C2.47901 16.4265 2.49184 16.8325 2.55367 18.1858C2.61084 19.4377 2.81967 20.1167 2.99584 20.5693C3.20117 21.1258 3.52901 21.631 3.95484 22.0452C4.36901 22.471 4.87417 22.7988 5.43067 23.0042C5.88334 23.1803 6.56234 23.3892 7.81417 23.4463C9.1675 23.5082 9.57234 23.521 13 23.521C16.4277 23.521 16.8325 23.5082 18.1858 23.4463C19.4377 23.3892 20.1167 23.1803 20.5693 23.0042C21.1678 22.7708 21.596 22.4943 22.0452 22.0452C22.471 21.631 22.7988 21.1258 23.0042 20.5693C23.1803 20.1167 23.3892 19.4377 23.4463 18.1858C23.5082 16.8325 23.521 16.4265 23.521 13C23.521 9.5735 23.5082 9.1675 23.4463 7.81417C23.3892 6.56234 23.1803 5.88334 23.0042 5.43067C22.7708 4.83217 22.4943 4.40401 22.0452 3.95484C21.6309 3.52909 21.1267 3.20142 20.5693 2.99584C20.1167 2.81967 19.4377 2.61084 18.1858 2.55367V2.55367ZM11.3608 16.9562C12.2763 17.3372 13.2956 17.3887 14.2448 17.1017C15.1939 16.8147 16.014 16.2071 16.5649 15.3826C17.1158 14.5582 17.3634 13.568 17.2654 12.5813C17.1674 11.5946 16.7298 10.6725 16.0275 9.9725C15.5798 9.52506 15.0384 9.18245 14.4424 8.96934C13.8464 8.75623 13.2105 8.67793 12.5806 8.74006C11.9507 8.80219 11.3423 9.00321 10.7994 9.32866C10.2565 9.6541 9.79254 10.0959 9.44086 10.6222C9.08918 11.1485 8.85856 11.7462 8.76561 12.3723C8.67265 12.9984 8.71968 13.6373 8.9033 14.2431C9.08692 14.8489 9.40257 15.4064 9.82751 15.8755C10.2525 16.3446 10.7761 16.7137 11.3608 16.9562ZM8.33567 8.33567C8.9482 7.72314 9.67538 7.23726 10.4757 6.90576C11.276 6.57426 12.1338 6.40364 13 6.40364C13.8663 6.40364 14.724 6.57426 15.5243 6.90576C16.3246 7.23726 17.0518 7.72314 17.6643 8.33567C18.2769 8.9482 18.7628 9.67538 19.0942 10.4757C19.4257 11.276 19.5964 12.1338 19.5964 13C19.5964 13.8663 19.4257 14.724 19.0942 15.5243C18.7628 16.3246 18.2769 17.0518 17.6643 17.6643C16.4273 18.9014 14.7495 19.5964 13 19.5964C11.2505 19.5964 9.57273 18.9014 8.33567 17.6643C7.09861 16.4273 6.40364 14.7495 6.40364 13C6.40364 11.2505 7.09861 9.57273 8.33567 8.33567V8.33567ZM21.0593 7.38601C21.2111 7.24282 21.3326 7.07063 21.4167 6.87964C21.5007 6.68865 21.5456 6.48274 21.5487 6.27409C21.5517 6.06544 21.5128 5.85831 21.4344 5.66495C21.356 5.47159 21.2395 5.29593 21.092 5.14838C20.9444 5.00083 20.7688 4.88439 20.5754 4.80594C20.382 4.7275 20.1749 4.68864 19.9663 4.69169C19.7576 4.69473 19.5517 4.7396 19.3607 4.82365C19.1697 4.9077 18.9975 5.02922 18.8543 5.181C18.5759 5.47621 18.4234 5.86831 18.4293 6.27409C18.4352 6.67987 18.5991 7.06736 18.886 7.35432C19.173 7.64128 19.5605 7.8051 19.9663 7.81102C20.372 7.81694 20.7641 7.66448 21.0593 7.38601V7.38601Z" fill="white"/>
</svg>
