<svg width="28" height="28" viewBox="0 0 28 28" fill="none" xmlns="http://www.w3.org/2000/svg">
<path d="M10.08 7.28C10.08 7.61227 9.98147 7.93708 9.79687 8.21336C9.61227 8.48963 9.34989 8.70496 9.04291 8.83212C8.73593 8.95927 8.39814 8.99254 8.07225 8.92772C7.74636 8.8629 7.44701 8.70289 7.21206 8.46794C6.97711 8.23299 6.8171 7.93364 6.75228 7.60775C6.68746 7.28186 6.72073 6.94407 6.84788 6.63709C6.97504 6.33011 7.19037 6.06773 7.46664 5.88313C7.74292 5.69853 8.06773 5.6 8.4 5.6C8.84556 5.6 9.27288 5.777 9.58794 6.09206C9.903 6.40712 10.08 6.83444 10.08 7.28V7.28ZM28 2.24V25.76C28 26.3541 27.764 26.9238 27.3439 27.3439C26.9238 27.764 26.3541 28 25.76 28H2.24C1.64592 28 1.07616 27.764 0.656081 27.3439C0.235999 26.9238 0 26.3541 0 25.76V2.24C0 1.64592 0.235999 1.07616 0.656081 0.656081C1.07616 0.235999 1.64592 0 2.24 0H25.76C26.3541 0 26.9238 0.235999 27.3439 0.656081C27.764 1.07616 28 1.64592 28 2.24ZM25.76 25.76V2.24H2.24V25.76H25.76ZM8.4 10.64C8.10296 10.64 7.81808 10.758 7.60804 10.968C7.398 11.1781 7.28 11.463 7.28 11.76V20.72C7.28 21.017 7.398 21.3019 7.60804 21.512C7.81808 21.722 8.10296 21.84 8.4 21.84C8.69704 21.84 8.98192 21.722 9.19196 21.512C9.402 21.3019 9.52 21.017 9.52 20.72V11.76C9.52 11.463 9.402 11.1781 9.19196 10.968C8.98192 10.758 8.69704 10.64 8.4 10.64ZM16.8 10.64C15.7917 10.6399 14.8066 10.9423 13.972 11.508C13.9108 11.2393 13.7526 11.0025 13.5277 10.8431C13.3028 10.6837 13.0271 10.6128 12.7532 10.644C12.4794 10.6752 12.2266 10.8063 12.0434 11.0122C11.8601 11.2181 11.7592 11.4844 11.76 11.76V20.72C11.76 21.017 11.878 21.3019 12.088 21.512C12.2981 21.722 12.583 21.84 12.88 21.84C13.177 21.84 13.4619 21.722 13.672 21.512C13.882 21.3019 14 21.017 14 20.72V15.68C14 14.9374 14.295 14.2252 14.8201 13.7001C15.3452 13.175 16.0574 12.88 16.8 12.88C17.5426 12.88 18.2548 13.175 18.7799 13.7001C19.305 14.2252 19.6 14.9374 19.6 15.68V20.72C19.6 21.017 19.718 21.3019 19.928 21.512C20.1381 21.722 20.423 21.84 20.72 21.84C21.017 21.84 21.3019 21.722 21.512 21.512C21.722 21.3019 21.84 21.017 21.84 20.72V15.68C21.84 14.3433 21.309 13.0614 20.3638 12.1162C19.4186 11.171 18.1367 10.64 16.8 10.64V10.64Z" fill="white"/>
</svg>
