<svg width="36" height="36" viewBox="0 0 36 36" fill="none" xmlns="http://www.w3.org/2000/svg">
<path d="M18 34.28C18.6299 34.2655 19.2345 34.0287 19.7066 33.6114C20.1788 33.1942 20.4881 32.6234 20.58 32H15.32C15.4145 32.6403 15.7383 33.2245 16.2313 33.6439C16.7243 34.0633 17.3528 34.2894 18 34.28V34.28Z" fill="white"/>
<path d="M32.51 27.83C31.5457 26.9703 30.7014 25.9848 30 24.9C29.2342 23.4025 28.7752 21.7672 28.65 20.09V15.15C28.6459 14.55 28.5924 13.9513 28.49 13.36C27.7029 13.2027 26.9465 12.919 26.25 12.52C26.5155 13.3748 26.6503 14.2649 26.65 15.16V20.1C26.7726 22.146 27.3354 24.1415 28.3 25.95C28.9904 27.044 29.8096 28.0512 30.74 28.95H5.12999C6.0604 28.0512 6.87959 27.044 7.56999 25.95C8.5346 24.1415 9.09742 22.146 9.21999 20.1V15.15C9.21472 13.9927 9.4378 12.8457 9.87643 11.7747C10.3151 10.7037 10.9606 9.7298 11.7762 8.90866C12.5918 8.08753 13.5613 7.43533 14.6293 6.98941C15.6972 6.5435 16.8427 6.31262 18 6.31C19.6938 6.31135 21.3495 6.81225 22.76 7.75C22.6045 7.17899 22.5172 6.59156 22.5 6V5.37C21.4558 4.85636 20.3341 4.51849 19.18 4.37V3.11C19.18 2.75594 19.0393 2.41637 18.789 2.16601C18.5386 1.91565 18.1991 1.775 17.845 1.775C17.4909 1.775 17.1514 1.91565 16.901 2.16601C16.6506 2.41637 16.51 2.75594 16.51 3.11V4.42C13.9257 4.78455 11.5606 6.07174 9.85121 8.04393C8.14186 10.0161 7.20372 12.5401 7.20999 15.15V20.09C7.08474 21.7672 6.62577 23.4025 5.85999 24.9C5.17087 25.9823 4.34018 26.9677 3.38999 27.83C3.28332 27.9237 3.19783 28.0391 3.13921 28.1684C3.08058 28.2977 3.05017 28.438 3.04999 28.58V29.94C3.04999 30.2052 3.15534 30.4596 3.34288 30.6471C3.53042 30.8346 3.78477 30.94 4.04999 30.94H31.85C32.1152 30.94 32.3696 30.8346 32.5571 30.6471C32.7446 30.4596 32.85 30.2052 32.85 29.94V28.58C32.8498 28.438 32.8194 28.2977 32.7608 28.1684C32.7021 28.0391 32.6167 27.9237 32.51 27.83V27.83Z" fill="white"/>
<path d="M30 11C32.7614 11 35 8.76142 35 6C35 3.23858 32.7614 1 30 1C27.2386 1 25 3.23858 25 6C25 8.76142 27.2386 11 30 11Z" fill="white"/>
</svg>
