<svg width="24" height="24" viewBox="0 0 24 24" fill="none" xmlns="http://www.w3.org/2000/svg">
<path d="M4.93 3.93C3.99997 4.85735 3.26236 5.95934 2.75953 7.17264C2.25671 8.38594 1.99859 9.68664 2 11C2 13.76 3.12 16.26 4.93 18.07L6.34 16.66C5.59456 15.9185 5.00384 15.0364 4.60214 14.0648C4.20044 13.0931 3.99577 12.0514 4 11C4 8.79 4.89 6.78 6.34 5.34L4.93 3.93ZM19.07 3.93L17.66 5.34C18.4047 6.08202 18.9949 6.96427 19.3965 7.93578C19.7982 8.90728 20.0033 9.94875 20 11C20 13.22 19.11 15.22 17.66 16.66L19.07 18.07C20 17.1426 20.7376 16.0407 21.2405 14.8274C21.7433 13.6141 22.0014 12.3134 22 11C22 8.24 20.88 5.74 19.07 3.93ZM7.76 6.76C7.2018 7.31596 6.75896 7.97675 6.45692 8.70438C6.15488 9.43202 5.9996 10.2122 6 11C6 12.65 6.67 14.15 7.76 15.24L9.17 13.83C8.79822 13.4586 8.50347 13.0174 8.30269 12.5317C8.10191 12.0461 7.99904 11.5255 8 11C8 9.89 8.45 8.89 9.17 8.17L7.78374 6.78374L7.76 6.76ZM16.24 6.76L14.83 8.17C15.2018 8.54142 15.4965 8.98263 15.6973 9.46829C15.8981 9.95394 16.001 10.4745 16 11C16 12.11 15.55 13.11 14.83 13.83L16.24 15.24C16.7982 14.684 17.241 14.0233 17.5431 13.2956C17.8451 12.568 18.0004 11.7878 18 11C18 9.35 17.33 7.85 16.24 6.76ZM12 9C11.4696 9 10.9609 9.21071 10.5858 9.58579C10.2107 9.96086 10 10.4696 10 11C10 11.5304 10.2107 12.0391 10.5858 12.4142C10.9609 12.7893 11.4696 13 12 13C12.5304 13 13.0391 12.7893 13.4142 12.4142C13.7893 12.0391 14 11.5304 14 11C14 10.4696 13.7893 9.96086 13.4142 9.58579C13.0391 9.21071 12.5304 9 12 9ZM11 15V19H10C9.73478 19 9.48043 19.1054 9.29289 19.2929C9.10536 19.4804 9 19.7348 9 20L9 22C9 22.2652 9.10536 22.5196 9.29289 22.7071C9.48043 22.8946 9.73478 23 10 23H14C14.2652 23 14.5196 22.8946 14.7071 22.7071C14.8946 22.5196 15 22.2652 15 22V20C15 19.7348 14.8946 19.4804 14.7071 19.2929C14.5196 19.1054 14.2652 19 14 19H13V15H11Z" fill="white"/>
</svg>
