<svg width="20" height="16" viewBox="0 0 20 16" fill="none" xmlns="http://www.w3.org/2000/svg">
<path d="M16.365 9.414C16.4588 9.50774 16.5859 9.56039 16.7185 9.56039C16.8511 9.56039 16.9782 9.50774 17.072 9.414L19.193 7.293C19.2841 7.1987 19.3345 7.0724 19.3333 6.9413C19.3322 6.8102 19.2796 6.68479 19.1869 6.59209C19.0942 6.49939 18.9688 6.4468 18.8377 6.44566C18.7066 6.44452 18.5803 6.49492 18.486 6.586L17.489 7.583C17.4036 6.04587 16.8472 4.57226 15.8953 3.36225C14.9435 2.15225 13.6424 1.26446 12.1686 0.819436C10.6948 0.374408 9.11979 0.393695 7.65735 0.874681C6.19491 1.35567 4.91591 2.27505 3.994 3.508C3.91444 3.61409 3.88027 3.74744 3.89903 3.87871C3.91778 4.00999 3.98792 4.12844 4.094 4.208C4.20009 4.28757 4.33344 4.32173 4.46471 4.30297C4.59599 4.28422 4.71444 4.21409 4.794 4.108C5.61471 3.01001 6.76154 2.1996 8.07054 1.79261C9.37955 1.38563 10.7837 1.40291 12.0823 1.84199C13.3809 2.28106 14.5074 3.11946 15.3009 4.23731C16.0943 5.35517 16.514 6.69526 16.5 8.066C16.5 8.09 16.502 8.116 16.505 8.139L14.951 6.586C14.8567 6.49492 14.7304 6.44452 14.5993 6.44566C14.4682 6.4468 14.3428 6.49939 14.2501 6.59209C14.1574 6.68479 14.1048 6.8102 14.1037 6.9413C14.1025 7.0724 14.1529 7.1987 14.244 7.293L16.365 9.414V9.414ZM3.637 6.586C3.54324 6.49226 3.41608 6.43961 3.2835 6.43961C3.15092 6.43961 3.02377 6.49226 2.93 6.586L0.809002 8.707C0.717923 8.8013 0.667526 8.9276 0.668665 9.0587C0.669804 9.1898 0.722388 9.31521 0.815092 9.40791C0.907796 9.50061 1.0332 9.5532 1.1643 9.55434C1.2954 9.55548 1.4217 9.50508 1.516 9.414L2.513 8.417C2.59844 9.95413 3.15485 11.4277 4.10667 12.6377C5.05849 13.8478 6.35962 14.7355 7.8334 15.1806C9.30718 15.6256 10.8822 15.6063 12.3447 15.1253C13.8071 14.6443 15.0861 13.725 16.008 12.492C16.0474 12.4395 16.0761 12.3797 16.0924 12.3161C16.1087 12.2525 16.1123 12.1863 16.103 12.1213C16.0937 12.0563 16.0717 11.9938 16.0382 11.9373C16.0048 11.8808 15.9605 11.8314 15.908 11.792C15.8555 11.7526 15.7957 11.7239 15.7321 11.7076C15.6685 11.6913 15.6023 11.6877 15.5373 11.697C15.4723 11.7063 15.4098 11.7283 15.3533 11.7618C15.2968 11.7952 15.2474 11.8395 15.208 11.892C14.3872 12.9901 13.2403 13.8005 11.9312 14.2075C10.6221 14.6144 9.21785 14.5971 7.91921 14.1579C6.62056 13.7187 5.49403 12.8801 4.70068 11.7621C3.90732 10.6441 3.48777 9.30383 3.502 7.933C3.50211 7.90858 3.50044 7.88418 3.497 7.86L5.051 9.414C5.09713 9.46175 5.1523 9.49985 5.2133 9.52605C5.2743 9.55226 5.33991 9.56605 5.4063 9.56663C5.47269 9.5672 5.53853 9.55455 5.59998 9.52941C5.66143 9.50427 5.71725 9.46714 5.7642 9.4202C5.81115 9.37325 5.84827 9.31742 5.87341 9.25598C5.89855 9.19453 5.91121 9.12869 5.91063 9.0623C5.91005 8.99591 5.89626 8.9303 5.87005 8.8693C5.84385 8.8083 5.80576 8.75312 5.758 8.707L3.637 6.586V6.586Z" fill="white"/>
</svg>
