<svg width="32" height="32" viewBox="0 0 32 32" fill="none" xmlns="http://www.w3.org/2000/svg">
<g clip-path="url(#clip0_9_21)">
<path d="M4.5 18.5C4.5 20.8734 5.20379 23.1935 6.52236 25.1668C7.84094 27.1402 9.71509 28.6783 11.9078 29.5866C14.1005 30.4948 16.5133 30.7324 18.8411 30.2694C21.1689 29.8064 23.3071 28.6635 24.9853 26.9853C26.6635 25.3071 27.8064 23.1689 28.2694 20.8411C28.7324 18.5133 28.4948 16.1005 27.5866 13.9078C26.6783 11.7151 25.1402 9.84094 23.1668 8.52236C21.1935 7.20379 18.8734 6.5 16.5 6.5H12.5V1.5L6.5 7.5L12.5 13.5V8.5H16.5C18.4778 8.5 20.4112 9.08649 22.0557 10.1853C23.7002 11.2841 24.9819 12.8459 25.7388 14.6732C26.4957 16.5004 26.6937 18.5111 26.3079 20.4509C25.922 22.3907 24.9696 24.1725 23.5711 25.5711C22.1725 26.9696 20.3907 27.922 18.4509 28.3079C16.5111 28.6937 14.5004 28.4957 12.6732 27.7388C10.8459 26.9819 9.28412 25.7002 8.1853 24.0557C7.08649 22.4112 6.5 20.4778 6.5 18.5H4.5Z" fill="white"/>
<path d="M16 12V20.5L20 23" stroke="white" stroke-width="2"/>
</g>
<defs>
<clipPath id="clip0_9_21">
<rect width="32" height="32" fill="white"/>
</clipPath>
</defs>
</svg>
