<svg width="200" height="168" viewBox="0 0 200 168" fill="none" xmlns="http://www.w3.org/2000/svg">
<path d="M188 0H12C8.8174 0 5.76516 1.26428 3.51472 3.51472C1.26428 5.76515 0 8.8174 0 12V156C0 159.183 1.26428 162.235 3.51472 164.485C5.76516 166.736 8.8174 168 12 168H25.4C26.1535 167.985 26.8881 167.762 27.5232 167.356C28.1583 166.95 28.6693 166.377 29 165.7C33.2132 156.8 39.8671 149.278 48.1875 144.012C56.5079 138.745 66.1527 135.949 76 135.949C85.8473 135.949 95.4921 138.745 103.813 144.012C112.133 149.278 118.787 156.8 123 165.7C123.331 166.377 123.842 166.95 124.477 167.356C125.112 167.762 125.847 167.985 126.6 168H188C191.183 168 194.235 166.736 196.485 164.485C198.736 162.235 200 159.183 200 156V12C200 8.8174 198.736 5.76515 196.485 3.51472C194.235 1.26428 191.183 0 188 0ZM192 156C192 157.061 191.579 158.078 190.828 158.828C190.078 159.579 189.061 160 188 160H129.1C121.745 146.167 109.303 135.733 94.4 130.9C101.177 126.87 106.444 120.726 109.391 113.412C112.338 106.098 112.802 98.0194 110.713 90.4163C108.623 82.8131 104.094 76.1063 97.8233 71.3263C91.5522 66.5463 83.8851 63.9575 76 63.9575C68.1149 63.9575 60.4478 66.5463 54.1767 71.3263C47.9055 76.1063 43.3772 82.8131 41.2874 90.4163C39.1976 98.0194 39.6618 106.098 42.6088 113.412C45.5558 120.726 50.8226 126.87 57.6 130.9C42.697 135.733 30.2549 146.167 22.9 160H12C10.9471 159.975 9.94439 159.545 9.19967 158.8C8.45496 158.056 8.02538 157.053 8 156V12C8 10.9391 8.42143 9.92172 9.17157 9.17157C9.92172 8.42143 10.9391 8 12 8H188C189.061 8 190.078 8.42143 190.828 9.17157C191.579 9.92172 192 10.9391 192 12V156ZM76 128C70.4621 128 65.0486 126.358 60.444 123.281C55.8395 120.204 52.2506 115.831 50.1314 110.715C48.0121 105.599 47.4576 99.9689 48.538 94.5375C49.6184 89.106 52.2851 84.1169 56.201 80.201C60.1169 76.2851 65.106 73.6184 70.5375 72.538C75.9689 71.4576 81.5988 72.0121 86.7151 74.1314C91.8315 76.2506 96.2045 79.8395 99.2812 84.444C102.358 89.0486 104 94.4621 104 100C103.974 107.418 101.015 114.525 95.7699 119.77C90.5246 125.015 83.418 127.974 76 128Z" fill="white"/>
</svg>
